<svg width="281" height="70" viewBox="0 0 281 70" xmlns="http://www.w3.org/2000/svg"><title>drupal8</title><g fill-rule="nonzero" fill="#CBD0E0"><path d="M83.615 44.774c0 4.44-1.928 8.033-6.417 8.033-4.492 0-6.433-3.593-6.433-8.033V29.597h-8.194v15.177c0 8.774 5.704 15.882 14.581 15.882 8.868 0 14.659-7.107 14.659-15.882V29.579h-8.214l.018 15.195zM165.862 20.324h8.169v39.55h-8.169zM180.064 21.784h2.33v6.264h1.712v-6.264h2.328v-1.42h-6.37zM193.29 20.363l-1.72 5.286h-.021l-1.817-5.286h-2.404v7.685h1.598v-5.392h.02l1.902 5.392h1.323l1.904-5.45h.018v5.45h1.602v-7.685zM44.221 34.936c-.089.181-.091.284-.405.281-.257-.01-.288-.281-.288-.281l-.873-5.294h-7.32V59.85h8.204V43.5c0-1.339 3.64-7.742 10.691-6.1 3.563.838 5.075 2.335 5.075 2.335v-9.2c-1.32-.682-2.225-1.012-3.414-1.284-7.04-1.607-11.483 5.31-11.67 5.686zM110.893 29.009c-8.93 0-16.17 7.158-16.17 15.991v24.798h8.225v-10.87l.005-4.071s.012-.323.31-.33c.263 0 .321.174.388.33.62 1.532 4.046 7.365 11.64 5.536 6.796-1.895 11.778-8.064 11.778-15.393-.002-8.833-7.24-15.991-16.176-15.991zm.009 24.085c-4.525 0-8.184-3.62-8.184-8.094 0-4.468 3.66-8.096 8.184-8.096 4.522 0 8.187 3.628 8.187 8.096.001 4.473-3.663 8.094-8.187 8.094zM146.37 29.009c-8.934 0-16.176 7.158-16.176 15.991 0 7.328 4.984 13.498 11.785 15.393 7.593 1.83 11.016-4.003 11.634-5.536.068-.156.126-.33.391-.33.298.007.308.33.308.33l.006 5.004h8.227V45c-.001-8.834-7.24-15.992-16.175-15.992zm-.004 24.085c-4.524 0-8.19-3.62-8.19-8.094 0-4.468 3.667-8.096 8.19-8.096 4.518 0 8.184 3.628 8.184 8.096 0 4.473-3.666 8.094-8.184 8.094zM10.313 20.306H.299v39.493h9.334c12.26 0 22.005-2.368 22.005-19.746-.001-17.545-9.199-19.747-21.325-19.747zm1.635 32.726l-3.388-.086V27.155h3.3c7.56 0 11.511 1.046 11.511 12.897 0 12.354-4.472 12.98-11.423 12.98z"/><g transform="translate(227.918)"><ellipse cx="24.92" cy="46.442" rx="9.392" ry="9.378"/><path d="M36.597 35.274a16.077 16.077 0 0 1 4.499 11.168c0 5.49-2.747 10.335-6.94 13.254 7.75-2.385 14.157-8.199 17.028-15.24 3.968-9.741.274-17.074-5.929-23.721.188.86.295 1.751.295 2.67 0 5.634-3.784 10.388-8.953 11.869z"/><ellipse cx="33.177" cy="23.402" rx="7.185" ry="7.174"/><path d="M12.544 56.842A16.064 16.064 0 0 1 8.741 46.44c0-8.268 6.224-15.08 14.247-16.033a12.29 12.29 0 0 1-2.186-7.005c0-6.824 5.541-12.354 12.375-12.354.564 0 1.118.04 1.66.115C30.792 7.675 26.752 4.138 23.564.27c1.629 16.936-15.45 10.782-21.762 26.39-4.236 10.472-.417 23.419 10.743 30.182z"/></g></g></svg>