<svg width="119" height="80" viewBox="0 0 119 80" xmlns="http://www.w3.org/2000/svg"><title>gopher-front</title><g fill="none" fill-rule="evenodd"><path d="M60.484 10.687c-2.033-4.231-6.95-.494-8.194-1.822C45.917 2.193 38.208.525 32.17.216h-3.34C22.762.371 15.054 2.162 8.71 8.865c-1.244 1.328-6.191-2.41-8.194 1.822-2.337 4.942 4.765 5.437 4.4 7.63-.698 3.953-.242 9.822.304 15.598.85 9.792-6.343 33.236 8.619 42.656 2.822 1.792 10.44 2.78 17.056 2.935h.06c6.616-.155 13.323-1.143 16.145-2.935 14.993-9.42 7.8-32.864 8.68-42.656.516-5.776.971-11.645.304-15.598-.365-2.193 6.737-2.719 4.4-7.63z" fill="#CBD0E0" fill-rule="nonzero"/><g transform="translate(33.08 13.59)" fill-rule="nonzero"><path d="M7.951.093C-2.185 1.297-.819 12.046 3.096 15.537c7.283 6.486 14.87 0 14.02-6.549-.758-6.3-6.009-9.266-9.165-8.895z" fill="#FFF"/><ellipse fill="#111212" cx="8.649" cy="9.359" rx="3.46" ry="3.521"/><ellipse fill="#FFF" cx="7.739" cy="7.846" rx="1.093" ry="1.112"/></g><g fill-rule="nonzero"><path d="M30.5 29.961c-4.856.742-6.586 2.163-6.221 4.386.607 3.645 12.048 3.244 12.412.186.304-2.626-4.28-4.85-6.191-4.572z" fill="#696F84"/><path d="M27.374 31.444c-.82 3.027 6.586 2.564 6.404.618-.091-1.143-1.093-2.595-3.733-2.533-1.032.03-2.307.494-2.67 1.915z" fill="#000"/><path d="M27.617 36.355c-.273.124-.728 3.15.668 3.305.94.093 3.52.402 4.127 0 1.184-.772 1.062-2.625.394-3.089-1.122-.74-4.886-.37-5.19-.216z" fill="#FFF"/></g><g transform="translate(10.622 13.59)" fill-rule="nonzero"><path d="M9.287.093c10.136 1.204 8.77 11.953 4.855 15.444-7.283 6.486-14.87 0-14.02-6.549C.91 2.688 6.16-.278 9.286.093z" fill="#FFF"/><ellipse fill="#111212" cx="8.619" cy="9.359" rx="3.46" ry="3.521"/><ellipse fill="#FFF" cx="9.529" cy="7.846" rx="1.093" ry="1.112"/></g><path d="M56.326 54.58c3.339.03 1.7-7.26-.364-5.808-1.001.71-1.183 2.348-1.183 3.738 0 .772.607 2.038 1.547 2.07zM4.643 54.58c-3.338.03-1.7-7.26.364-5.808 1.002.71 1.184 2.348 1.184 3.738 0 .772-.607 2.038-1.548 2.07zM49.984 76.973c-1.821-2.75-3.46-.618-6.1.741-1.245.649 2.063 2.966 5.766 1.236.97-.464.94-1.081.334-1.977zM10.986 77.282c1.821-2.75 3.46-.618 6.1.741 1.244.649-2.064 2.965-5.766 1.236-.971-.464-.94-1.081-.334-1.977zM54.809 11.429c-.182.648.637.556.94 2.563.122.742 2.732-1.08 1.67-2.409-.88-1.112-2.458-.803-2.61-.154zM6.16 11.429c.183.648-.637.556-.94 2.563-.121.742-2.731-1.08-1.67-2.409.85-1.112 2.429-.803 2.61-.154z" fill="#696F84" fill-rule="nonzero"/><text font-family="Helvetica" font-size="28" fill="#CBD0E0"><tspan x="82.324" y="52">Go</tspan></text></g></svg>