<svg width="365" height="40" viewBox="0 0 365 40" xmlns="http://www.w3.org/2000/svg"><title>Google-Cloud-Platform-logo</title><g fill="none" fill-rule="evenodd"><path d="M43.747 17.127a658.36 658.36 0 0 1-5.475-8.877c-.785-1.304-2.033-3.451-3.743-6.442C34.013.906 33.112.262 31.952.262H12.626c-1.031 0-2.061.516-2.577 1.546L3.935 12.565 15.46 33.19V8.25h13.724l14.562 8.877z" fill="#A0A6B8"/><path d="M4.123 12.244L.386 18.686a3.034 3.034 0 0 0 0 2.963l9.663 16.75c.516.901 1.546 1.545 2.577 1.545h14.493l8.956-19.841-20.614 11.853L4.123 12.244z" fill="#ADB3C6"/><path d="M15.461 8.25l20.485 11.853-11.467 19.841h7.473c1.031 0 2.061-.515 2.577-1.545l9.663-16.878a3.036 3.036 0 0 0 0-2.964L38.265 8.25H15.461z" fill="#979DAF"/><path d="M29.118 8.25l6.828 11.853-6.828 11.853H15.461L8.632 20.103 15.461 8.25h13.657zM22 26a6 6 0 1 0 0-12 6 6 0 0 0 0 12zM341.422 16.496h2.835v2.19h.129c.902-1.546 2.963-2.706 4.767-2.706 2.448 0 4.123 1.16 4.896 2.964 1.159-1.804 2.963-2.964 5.411-2.964 3.865 0 5.54 2.706 5.54 6.571v9.534h-2.963v-9.018c0-3.221-1.289-4.252-3.479-4.252-2.319 0-3.994 2.448-3.994 4.767v8.632h-2.963v-9.019c0-3.221-1.289-4.251-3.479-4.251-2.319 0-3.994 2.448-3.994 4.767v8.632h-2.963V16.496h.257zm-11.208 15.46v-15.46h2.834v2.577h.129c.644-1.804 2.834-2.964 4.509-2.964.902 0 1.546.129 2.19.387l-1.159 2.706a4.803 4.803 0 0 0-1.546-.258c-2.062 0-3.994 1.675-3.994 4.509v8.503h-2.963zm-5.283-7.73c0-3.607-2.448-5.669-5.025-5.669-2.576 0-5.024 2.062-5.024 5.669 0 3.608 2.448 5.669 5.024 5.669 2.577-.129 5.025-2.19 5.025-5.669zm2.963 0c0 4.767-3.349 8.246-7.988 8.246-4.638 0-7.988-3.608-7.988-8.246 0-4.767 3.35-8.246 7.988-8.246 4.639 0 7.988 3.479 7.988 8.246zM311.918 9.539l-1.03 2.447c-.387-.128-.773-.257-1.289-.257-1.417 0-2.576.902-2.576 2.705v1.933h3.994v2.706h-3.994v12.883h-2.964V19.073h-2.834v-2.706h2.963v-1.933c0-3.221 2.19-5.282 5.54-5.282.902 0 1.546.129 2.19.387zm-18.939 17.779v-8.116h-2.705v-2.706h2.705v-4.767h2.963v4.767h3.866v2.706h-3.866v7.987c0 1.804.773 2.577 2.062 2.577.515 0 .902 0 1.288-.257l1.031 2.447c-.644.258-1.417.387-2.319.387-3.221-.129-5.025-1.933-5.025-5.025zm-6.957-2.061s-1.289-1.031-3.736-1.031c-3.093 0-4.252 1.675-4.252 3.092 0 1.675 1.675 2.448 3.221 2.448 2.319 0 4.767-1.932 4.767-4.509zm-11.08 2.061c0-3.478 3.221-5.411 6.828-5.411 2.062 0 3.608.644 4.252.902v-.387c0-2.319-1.933-3.736-3.994-3.736-1.675 0-3.221.773-3.736 2.19l-2.706-1.159c.515-1.417 2.448-3.737 6.313-3.737 3.865 0 6.957 2.32 6.957 6.7v9.405h-2.834v-2.19h-.129c-.902 1.289-2.448 2.706-5.154 2.706-3.092-.129-5.797-2.062-5.797-5.283zm-5.412 4.639h2.964V9.281h-2.964v22.676zm-9.018-11.983c2.577 0 3.994-2.19 3.994-3.994 0-1.803-1.417-3.994-3.994-3.994h-4.896v7.988h4.896zm-7.859 11.982V9.281h7.73c3.736 0 7.086 2.834 7.086 6.699 0 3.866-3.35 6.7-7.086 6.7h-4.767v9.148h-2.963v.128zm-10.694-7.73c0-3.607-2.319-5.669-4.896-5.669s-4.896 2.062-4.896 5.669c0 3.479 2.319 5.669 4.896 5.669 2.448-.129 4.896-2.19 4.896-5.669zm-12.884 0c0-4.767 3.479-8.246 7.344-8.246 2.448 0 4.38 1.289 5.282 2.706h.129l-.129-2.19V9.281h2.964v22.675h-2.706v-2.19h-.129c-.902 1.418-2.834 2.706-5.282 2.706-3.994 0-7.473-3.479-7.473-8.246zm-5.153 7.73v-2.19h-.129c-.902 1.418-2.835 2.706-4.896 2.706-3.994 0-5.927-2.706-5.927-6.571v-9.534h2.964v9.019c0 3.221 1.674 4.38 3.865 4.38 2.577 0 4.123-2.448 4.123-4.767v-8.503h2.963v15.589h-2.963v-.129zm-16.105-7.73c0-3.607-2.448-5.669-5.025-5.669-2.577 0-5.025 2.062-5.025 5.669 0 3.608 2.448 5.669 5.025 5.669 2.577-.129 5.025-2.19 5.025-5.669zm2.963 0c0 4.767-3.35 8.246-7.988 8.246s-7.988-3.608-7.988-8.246c0-4.767 3.35-8.246 7.988-8.246s7.988 3.479 7.988 8.246zm-21.129 7.731h2.963V9.281h-2.963v22.676zm-23.063-11.338c0-6.7 5.154-11.853 11.854-11.853 3.478 0 6.313 1.417 8.374 3.736l-2.061 1.932c-1.546-1.932-3.737-2.834-6.313-2.834-4.767 0-8.761 3.479-8.761 9.019s3.994 9.018 8.761 9.018c2.834 0 5.282-1.288 6.957-3.349l2.061 2.061c-1.932 2.319-5.153 3.994-9.018 3.994-6.7.129-11.854-4.896-11.854-11.724zM128.271 29.179c-2.526 0-4.656-2.13-4.656-5.052 0-2.947 2.13-5.101 4.656-5.101 2.501 0 4.457 2.154 4.457 5.101.025 2.947-1.956 5.052-4.457 5.052zm4.209-12.926v1.361h-.123c-.818-.99-2.402-1.881-4.408-1.881-4.185 0-8.023 3.664-8.023 8.394 0 4.68 3.838 8.345 8.023 8.345 2.006 0 3.59-.891 4.408-1.907h.123v1.214c0 3.194-1.708 4.903-4.457 4.903-2.253 0-3.64-1.61-4.21-2.972l-3.194 1.337c.916 2.229 3.368 4.953 7.429 4.953 4.309 0 7.949-2.526 7.949-8.717v-15.03h-3.517zm-22.484 12.926c-2.526 0-4.73-2.08-4.73-5.077 0-3.021 2.179-5.076 4.73-5.076 2.55 0 4.729 2.055 4.729 5.076 0 2.997-2.203 5.077-4.729 5.077zm0-13.422c-4.631 0-8.395 3.517-8.395 8.37 0 4.829 3.764 8.37 8.395 8.37 4.63 0 8.394-3.541 8.394-8.37 0-4.853-3.764-8.37-8.394-8.37zM91.671 29.179c-2.525 0-4.729-2.08-4.729-5.077 0-3.021 2.179-5.076 4.729-5.076 2.526 0 4.73 2.055 4.73 5.076 0 2.997-2.204 5.077-4.73 5.077zm0-13.422c-4.63 0-8.394 3.517-8.394 8.37 0 4.829 3.764 8.37 8.394 8.37 4.631 0 8.395-3.541 8.395-8.37 0-4.853-3.764-8.37-8.395-8.37zm-34.99 3.739c0-7.181 6.018-13 13.199-13 3.962 0 6.785 1.56 8.915 3.591l-2.526 2.501c-1.511-1.437-3.566-2.551-6.389-2.551-5.225 0-9.311 4.21-9.311 9.435 0 5.225 4.086 9.434 9.311 9.434 3.392 0 5.324-1.362 6.562-2.6 1.015-1.015 1.684-2.476 1.932-4.457H69.88v-3.541h11.96c.124.644.199 1.387.199 2.228 0 2.675-.719 5.968-3.071 8.296-2.303 2.377-5.225 3.64-9.088 3.64-7.181 0-13.199-5.819-13.199-12.976zM138.522 31.976h3.665V7.387h-3.665zM151.993 18.976c1.461 0 2.7.719 3.096 1.783l-7.479 3.096c-.099-3.22 2.501-4.879 4.383-4.879zm.273 10.203c-1.882 0-3.195-.867-4.061-2.526l11.193-4.631-.372-.941c-.693-1.882-2.823-5.324-7.156-5.324-4.309 0-7.9 3.393-7.9 8.37 0 4.68 3.541 8.37 8.296 8.37 3.838 0 6.042-2.353 6.983-3.715l-2.848-1.906c-.966 1.386-2.253 2.303-4.135 2.303z" fill="#CBD0E0"/></g></svg>